{
	"asset":{
		"generator":"Khronos glTF Blender I/O v4.1.62",
		"version":"2.0"
	},
	"extensionsUsed":[
		"KHR_lights_punctual",
		"EXT_texture_webp"
	],
	"extensionsRequired":[
		"KHR_lights_punctual",
		"EXT_texture_webp"
	],
	"extensions":{
		"KHR_lights_punctual":{
			"lights":[
				{
					"color":[
						1,
						1,
						1
					],
					"intensity":5464,
					"type":"directional",
					"name":"Light"
				}
			]
		}
	},
	"scene":0,
	"scenes":[
		{
			"name":"Scene",
			"nodes":[
				0,
				1,
				2
			]
		}
	],
	"nodes":[
		{
			"extensions":{
				"KHR_lights_punctual":{
					"light":0
				}
			},
			"name":"Light",
			"rotation":[
				-0.4241449236869812,
				0.8469043374061584,
				0.1416534036397934,
				0.2877298593521118
			],
			"translation":[
				1.6075903177261353,
				6.517378807067871,
				-8.488739013671875
			]
		},
		{
			"camera":0,
			"name":"Camera",
			"rotation":[
				-0.20997299253940582,
				0.3857799470424652,
				0.09062844514846802,
				0.8937962055206299
			],
			"translation":[
				7.358891487121582,
				4.958309173583984,
				6.925790786743164
			]
		},
		{
			"mesh":0,
			"name":"world-map-earth-flat-view-600nw-1667139892",
			"rotation":[
				-0.013876774348318577,
				0.7864271402359009,
				0.021081268787384033,
				0.6171672344207764
			],
			"translation":[
				0.04486209154129028,
				2.0860559940338135,
				-0.11247839033603668
			]
		}
	],
	"cameras":[
		{
			"name":"Camera",
			"perspective":{
				"aspectRatio":1.7777777777777777,
				"yfov":0.39959652046304894,
				"zfar":100,
				"znear":0.10000000149011612
			},
			"type":"perspective"
		}
	],
	"materials":[
		{
			"alphaMode":"BLEND",
			"doubleSided":true,
			"name":"world-map-earth-flat-view-600nw-1667139892",
			"pbrMetallicRoughness":{
				"baseColorTexture":{
					"index":0
				},
				"metallicFactor":0,
				"roughnessFactor":0.5
			}
		}
	],
	"meshes":[
		{
			"name":"world-map-earth-flat-view-600nw-1667139892",
			"primitives":[
				{
					"attributes":{
						"POSITION":0,
						"NORMAL":1,
						"TEXCOORD_0":2
					},
					"indices":3,
					"material":0
				}
			]
		}
	],
	"textures":[
		{
			"extensions":{
				"EXT_texture_webp":{
					"source":0
				}
			},
			"sampler":0
		}
	],
	"images":[
		{
			"mimeType":"image/webp",
			"name":"world-map-earth-flat-view-600nw-1667139892",
			"uri":"world-map-earth-flat-view-600nw-1667139892.webp"
		}
	],
	"accessors":[
		{
			"bufferView":0,
			"componentType":5126,
			"count":4225,
			"max":[
				1.6257686614990234,
				1.6481729745864868,
				0.7480525374412537
			],
			"min":[
				-1.6257692575454712,
				-1.6481724977493286,
				-2.503485918045044
			],
			"type":"VEC3"
		},
		{
			"bufferView":1,
			"componentType":5126,
			"count":4225,
			"type":"VEC3"
		},
		{
			"bufferView":2,
			"componentType":5126,
			"count":4225,
			"type":"VEC2"
		},
		{
			"bufferView":3,
			"componentType":5123,
			"count":24576,
			"type":"SCALAR"
		}
	],
	"bufferViews":[
		{
			"buffer":0,
			"byteLength":50700,
			"byteOffset":0,
			"target":34962
		},
		{
			"buffer":0,
			"byteLength":50700,
			"byteOffset":50700,
			"target":34962
		},
		{
			"buffer":0,
			"byteLength":33800,
			"byteOffset":101400,
			"target":34962
		},
		{
			"buffer":0,
			"byteLength":49152,
			"byteOffset":135200,
			"target":34963
		}
	],
	"samplers":[
		{
			"magFilter":9729,
			"minFilter":9987,
			"wrapS":33071,
			"wrapT":33071
		}
	],
	"buffers":[
		{
			"byteLength":184352,
			"uri":"aarde.bin"
		}
	]
}
